#!Matlab matrix to amc conversion
:FULLY-SPECIFIED
:DEGREES
1
root 9.287220 16.950000 -34.276200 0.000000 0.000000 0.000000
lowerback 0.000000 0.000000 0.000000
upperback 0.000000 0.000000 0.000000
thorax 0.000000 0.000000 0.000000
lowerneck -16.000000 0.000000 0.000000
upperneck 21.000000 0.000000 0.000000
head 11.000000 0.000000 0.000000
rclavicle 0.000000 0.000000
rhumerus 0.000000 0.000000 0.000000
rradius 0.000000
rwrist 0.000000
rhand 0.000000 0.000000
rfingers 0.000000
rthumb 0.000000 0.000000
lclavicle 0.000000 0.000000
lhumerus 0.000000 0.000000 0.000000
lradius 0.000000
lwrist 0.000000
lhand 0.000000 0.000000
lfingers 0.000000
lthumb 0.000000 0.000000
rfemur 0.000000 0.000000 21.000000
rtibia 0.000000
rfoot 0.000000 0.000000
rtoes 0.000000
lfemur 0.000000 0.000000 -21.000000
ltibia 0.000000
lfoot 0.000000 0.000000
ltoes 0.000000
2
root 9.287220 16.950000 -34.276200 2.168414 1.634016 0.001929
lowerback 11.806092 -1.050808 -0.937546
upperback -0.720668 -1.271273 3.076469
thorax -7.264199 -0.510463 4.032508
lowerneck -12.054597 -0.158583 -1.673792
upperneck 27.480926 0.757744 -2.148545
head 11.021595 -0.085486 -0.421227
rclavicle -0.000000 0.000000
rhumerus -40.458431 -15.194383 -72.231941
rradius 23.625648
rwrist 5.461351
rhand -13.143341 10.840681
rfingers 7.125020
rthumb 12.954660 -18.672056
lclavicle -0.000000 0.000000
lhumerus -37.859825 4.380881 84.771719
lradius 42.079873
lwrist 6.390842
lhand -13.994716 45.680444
lfingers 7.125020
lthumb 12.127214 75.304807
rfemur -17.554249 6.315246 22.298705
rtibia 22.298730
rfoot -3.367862 -9.756538
rtoes 15.339476
lfemur 6.417351 -6.733057 -24.220551
ltibia 36.706655
lfoot 7.254967 -2.391732
ltoes -17.086172
3
root 9.273270 17.016600 -33.905900 2.287635 1.634016 -0.045731
lowerback 11.731801 -0.898453 0.242016
upperback -1.093226 -0.890194 3.521454
thorax -7.607296 -0.347375 3.779092
lowerneck -11.822365 -0.197567 -1.632780
upperneck 27.937941 0.753836 -2.332020
head 11.144737 -0.110192 -0.488367
rclavicle -0.000000 0.000000
rhumerus -41.060443 -15.625513 -71.317225
rradius 22.856214
rwrist 5.751153
rhand -13.338911 10.444927
rfingers 7.125020
rthumb 12.767133 -19.066703
lclavicle -0.000000 0.000000
lhumerus -39.290185 5.440960 84.743670
lradius 40.452419
lwrist 6.180263
lhand -13.129345 45.821471
lfingers 7.125020
lthumb 12.964544 75.361450
rfemur -15.744969 5.178940 24.663123
rtibia 23.252436
rfoot -3.699852 -7.530300
rtoes 16.369107
lfemur 2.869990 -5.904314 -22.171622
ltibia 43.843440
lfoot 14.045122 -2.916626
ltoes -13.990202
4
root 9.268420 17.025800 -33.555600 1.925570 1.634016 0.121986
lowerback 12.071638 -0.710733 1.053846
upperback -0.985414 -0.507764 3.607172
thorax -7.718386 -0.193917 3.372792
lowerneck -11.813639 -0.268827 -1.686780
upperneck 27.947238 0.575764 -1.991371
head 11.150750 -0.157654 -0.381616
rclavicle -0.000000 0.000000
rhumerus -39.734812 -14.883995 -72.196362
rradius 23.523797
rwrist 5.127105
rhand -13.258650 10.544215
rfingers 7.125020
rthumb 12.845347 -18.968199
lclavicle -0.000000 0.000000
lhumerus -39.750550 5.574607 84.726853
lradius 39.903857
lwrist 5.888448
lhand -12.817757 45.969839
lfingers 7.125020
lthumb 13.263135 75.484617
rfemur -13.387740 5.218553 26.227835
rtibia 23.630332
rfoot -5.309994 -7.022993
rtoes 16.546364
lfemur -2.179295 -4.466465 -20.649222
ltibia 50.109070
lfoot 11.457340 -1.807786
ltoes -13.850521
